# xmcd
#
# Track frame offsets:
# 183
# 11663
# 23183
# 35680
# 45915
# 56670
# 68900
# 81925
# 98258
# 108998
# 122760
# 134748
# 146183
#
# Disc length: 2126 seconds
#
# Revision: 0
# Processed by: cddbd v1.5.1PL0 Copyright (c) Steve Scherf et al.
# Submitted via: Audion 3.0.2 (http://www.panic.com/audion/)
#
DISCID=b1084c0d
DTITLE=Irma Thomas - Irma Thomas-Down at Muscle Shoals
DYEAR=1900
DGENRE=
TTITLE0=We Got Something Good
TTITLE1=Good To Me
TTITLE2=Here I am, Take Me
TTITLE3=Security
TTITLE4=Let's Do It Over
TTITLE5=Somewhere Crying
TTITLE6=A Woman Will Do Wrong
TTITLE7=Your Until Tomorrow
TTITLE8=I Gave You Everything
TTITLE9=I've Been Loving You Too Long
TTITLE10=Don't Make Me Stop Now
TTITLE11=Cheater Man
TTITLE12=Good Things Don't Come Easy
EXTD=
EXTT0=
EXTT1=
EXTT2=
EXTT3=
EXTT4=
EXTT5=
EXTT6=
EXTT7=
EXTT8=
EXTT9=
EXTT10=
EXTT11=
EXTT12=
PLAYORDER=
